<svg xmlns="http://www.w3.org/2000/svg" width="1280" height="720" viewBox="0 0 1280 720" role="img" aria-label="Bakul B40 dashboard preview">
  <rect width="1280" height="720" fill="#f8fafc"/>
  <rect x="32" y="24" width="1216" height="72" rx="16" fill="#0f172a"/>
  <text x="64" y="68" fill="#ffffff" font-family="Arial, sans-serif" font-size="34" font-weight="700">Bakul B40: Beban Harga Makanan Asas</text>
  <text x="64" y="106" fill="#334155" font-family="Arial, sans-serif" font-size="20">Interactive Streamlit dashboard preview</text>

  <rect x="32" y="132" width="1216" height="132" rx="18" fill="#ffffff" stroke="#cbd5e1"/>
  <rect x="64" y="164" width="260" height="72" rx="16" fill="#e2e8f0"/>
  <rect x="354" y="164" width="260" height="72" rx="16" fill="#e2e8f0"/>
  <rect x="644" y="164" width="260" height="72" rx="16" fill="#e2e8f0"/>
  <rect x="934" y="164" width="260" height="72" rx="16" fill="#e2e8f0"/>
  <text x="86" y="195" fill="#0f172a" font-family="Arial, sans-serif" font-size="18" font-weight="700">Kos Bakul Batang Padang</text>
  <text x="86" y="222" fill="#1d4ed8" font-family="Arial, sans-serif" font-size="28" font-weight="700">RM 148.57</text>
  <text x="376" y="195" fill="#0f172a" font-family="Arial, sans-serif" font-size="18" font-weight="700">Perubahan Sejak Mula</text>
  <text x="376" y="222" fill="#1d4ed8" font-family="Arial, sans-serif" font-size="28" font-weight="700">-24.6%</text>
  <text x="666" y="195" fill="#0f172a" font-family="Arial, sans-serif" font-size="18" font-weight="700">Beban Pendapatan</text>
  <text x="666" y="222" fill="#1d4ed8" font-family="Arial, sans-serif" font-size="28" font-weight="700">8.46%</text>
  <text x="956" y="195" fill="#0f172a" font-family="Arial, sans-serif" font-size="18" font-weight="700">Negeri Paling Tertekan</text>
  <text x="956" y="222" fill="#1d4ed8" font-family="Arial, sans-serif" font-size="28" font-weight="700">Sabah</text>

  <rect x="32" y="294" width="760" height="394" rx="18" fill="#ffffff" stroke="#cbd5e1"/>
  <rect x="820" y="294" width="428" height="190" rx="18" fill="#ffffff" stroke="#cbd5e1"/>
  <rect x="820" y="498" width="428" height="190" rx="18" fill="#ffffff" stroke="#cbd5e1"/>

  <text x="62" y="330" fill="#0f172a" font-family="Arial, sans-serif" font-size="22" font-weight="700">Kos Bakul Bulanan</text>
  <polyline fill="none" stroke="#2563eb" stroke-width="4" points="96,602 168,586 240,562 312,545 384,527 456,506 528,490 600,468 672,448 744,422"/>
  <polyline fill="none" stroke="#0f766e" stroke-width="4" points="96,618 168,600 240,582 312,560 384,541 456,520 528,500 600,487 672,470 744,456"/>
  <line x1="96" y1="640" x2="744" y2="640" stroke="#94a3b8" stroke-width="2"/>
  <line x1="96" y1="374" x2="96" y2="640" stroke="#94a3b8" stroke-width="2"/>

  <text x="848" y="330" fill="#0f172a" font-family="Arial, sans-serif" font-size="22" font-weight="700">Beban Gaji Negeri</text>
  <rect x="870" y="430" width="68" height="30" fill="#60a5fa"/>
  <rect x="970" y="396" width="68" height="64" fill="#3b82f6"/>
  <rect x="1070" y="378" width="68" height="82" fill="#1d4ed8"/>
  <text x="864" y="476" fill="#334155" font-family="Arial, sans-serif" font-size="16">Perak</text>
  <text x="948" y="476" fill="#334155" font-family="Arial, sans-serif" font-size="16">W.P. KL</text>
  <text x="1068" y="476" fill="#334155" font-family="Arial, sans-serif" font-size="16">Sabah</text>

  <text x="848" y="534" fill="#0f172a" font-family="Arial, sans-serif" font-size="22" font-weight="700">Insight Ringkas</text>
  <text x="848" y="572" fill="#334155" font-family="Arial, sans-serif" font-size="18">- Batang Padang mengambil 7.25% gaji rujukan</text>
  <text x="848" y="606" fill="#334155" font-family="Arial, sans-serif" font-size="18">- Sabah paling tertekan dalam snapshot</text>
  <text x="848" y="640" fill="#334155" font-family="Arial, sans-serif" font-size="18">- Ramadan menaikkan purata kos bakul</text>
</svg>
